# xmcd
#
# Track frame offsets: 
#        150
#        12128
#        23704
#        38806
#        42973
#        54731
#        65152
#        80611
#        91015
#        102777
#        122940
#        127071
#        138047
#        141394
#
# Disc length: 2088 seconds
#
# Revision: 1
# Processed by: cddbd v1.5.2PL0 Copyright (c) Steve Scherf et al.
# Submitted via: ExactAudioCopy v0.99pb5
#
DISCID=bf08260e
DTITLE=Blackbird RAUM - under the starling host
DYEAR=2009
DGENRE=Folk
TTITLE0=turning away
TTITLE1=catherine's wheel
TTITLE2=lucasville
TTITLE3=all turning backs in the meadow and wait while bones are throw
TTITLE3=n
TTITLE4=to the barricades!
TTITLE5=william
TTITLE6=the helm of ned kelly
TTITLE7=crumbs
TTITLE8=snare
TTITLE9=ensemble suicide
TTITLE10=old one eye
TTITLE11=conquest of bread
TTITLE12=a rat in my dream
TTITLE13=path of raven
EXTD=
EXTT0=
EXTT1=
EXTT2=
EXTT3=
EXTT4=
EXTT5=
EXTT6=
EXTT7=
EXTT8=
EXTT9=
EXTT10=
EXTT11=
EXTT12=
EXTT13=
PLAYORDER=
